# xmcd
#
# Track frame offsets:
#	150
#	11917
#	41830
#	54270
#	68620
#	81840
#	119512
#	159370
#	166730
#	186357
#	249017
#
# Disc length: 3434 seconds
#
# Revision: 1
# Processed by: cddbd v1.5.2PL0 Copyright (c) Steve Scherf et al.
# Submitted via: audiograbber 1.83.01
#
DISCID=840d680b
DTITLE=IVAN EMBOLADOR and PALITO - Repentistas Nordestinos Vol. 01
DYEAR=2006
DGENRE=Embolada
TTITLE0=Mulher Do Vizinho
TTITLE1=O Poder Da Bunda
TTITLE2=Carreirão
TTITLE3=Mulher Bonita E Feia
TTITLE4=A Dança Da Lambada
TTITLE5=Proseado De Gracejos Em Alto Belo
TTITLE6=O Arroz
TTITLE7=Cilada Do Negão
TTITLE8=Não Queira Pedir Carona
TTITLE9=Proseado Sem Futuro
TTITLE10=Cacete Armado
EXTD=
EXTT0=
EXTT1=
EXTT2=
EXTT3=
EXTT4=
EXTT5=
EXTT6=
EXTT7=
EXTT8=
EXTT9=
EXTT10=
PLAYORDER=
